<svg width="21" height="21" viewBox="0 0 21 21" fill="none" xmlns="http://www.w3.org/2000/svg">
<path d="M7.018 5L5.527 6.504L2.25 6.505C2.05109 6.505 1.86032 6.58402 1.71967 6.72467C1.57902 6.86532 1.5 7.05609 1.5 7.255V18.75C1.5 19.164 1.836 19.5 2.25 19.5H13.75C13.9489 19.5 14.1397 19.421 14.2803 19.2803C14.421 19.1397 14.5 18.9489 14.5 18.75L14.498 15.471L16 13.98V18.75C16 19.3467 15.7629 19.919 15.341 20.341C14.919 20.7629 14.3467 21 13.75 21H2.25C1.65326 21 1.08097 20.7629 0.65901 20.341C0.237053 19.919 0 19.3467 0 18.75V7.254C0 6.65726 0.237053 6.08497 0.65901 5.66301C1.08097 5.24105 1.65326 5.004 2.25 5.004L7.018 5ZM3.22 11.22L5.219 9.222C5.34599 9.09498 5.51434 9.01775 5.69345 9.00436C5.87256 8.99096 6.05053 9.04229 6.195 9.149L6.279 9.222L11.78 14.719C11.9073 14.846 11.9847 15.0146 11.9981 15.1939C12.0115 15.3733 11.96 15.5514 11.853 15.696L11.78 15.78L9.78 17.78C9.65301 17.907 9.48466 17.9842 9.30555 17.9976C9.12644 18.011 8.94847 17.9597 8.804 17.853L8.72 17.78L3.22 12.28C3.09272 12.153 3.01533 11.9844 3.00193 11.8051C2.98853 11.6257 3.04001 11.4476 3.147 11.303L3.22 11.219V11.22ZM5.749 10.813L4.811 11.75L9.25 16.19L10.19 15.25L5.749 10.813ZM19.279 1.718C19.5537 1.99314 19.7626 2.32681 19.8902 2.69406C20.0179 3.06131 20.0608 3.45266 20.0159 3.83884C19.971 4.22503 19.8394 4.59607 19.6309 4.92425C19.4224 5.25242 19.1425 5.52923 18.812 5.734L18.665 5.819L17.497 6.437L18.013 6.952C18.5982 7.53736 18.938 8.32393 18.9631 9.15124C18.9881 9.97855 18.6966 10.7843 18.148 11.404L18.013 11.548L16.78 12.78C16.653 12.907 16.4847 12.9842 16.3055 12.9976C16.1264 13.011 15.9485 12.9597 15.804 12.853L15.72 12.78L15.25 12.31L13.78 13.78C13.653 13.907 13.4847 13.9842 13.3055 13.9976C13.1264 14.011 12.9485 13.9597 12.804 13.853L12.72 13.78L7.22 8.28C7.09272 8.15295 7.01533 7.9844 7.00193 7.80507C6.98853 7.62573 7.04001 7.44755 7.147 7.303L7.22 7.219L8.689 5.749L8.219 5.28C8.09187 5.15283 8.01466 4.98421 8.00145 4.80488C7.98823 4.62555 8.03989 4.44743 8.147 4.303L8.22 4.219L9.451 2.989C10.0368 2.4047 10.8233 2.06551 11.6503 2.04043C12.4773 2.01535 13.2828 2.30627 13.903 2.854L14.047 2.989L14.561 3.503L15.179 2.336C15.269 2.166 15.378 2.006 15.503 1.861L15.633 1.72C15.8723 1.48031 16.1564 1.29011 16.4693 1.16028C16.7821 1.03045 17.1174 0.963528 17.4561 0.963342C17.7948 0.963156 18.1302 1.02971 18.4431 1.1592C18.7561 1.28868 19.0405 1.47857 19.28 1.718H19.279ZM9.749 6.813L8.811 7.75L13.25 12.19L14.19 11.25L9.749 6.813ZM10.636 3.937L10.511 4.05L9.811 4.75L16.25 11.19L16.952 10.487C17.2772 10.1619 17.4613 9.72196 17.4647 9.26219C17.4681 8.80242 17.2904 8.35979 16.97 8.03L12.988 4.05C12.6798 3.74276 12.2684 3.56104 11.8338 3.54016C11.3991 3.51927 10.9722 3.66071 10.636 3.937ZM16.695 2.78C16.645 2.83 16.599 2.886 16.559 2.946L16.505 3.038L15.672 4.611L16.388 5.328L17.963 4.493C18.0993 4.41999 18.2183 4.31849 18.3119 4.19539C18.4055 4.07229 18.4714 3.93049 18.5053 3.77961C18.5392 3.62874 18.5402 3.47234 18.5083 3.32105C18.4763 3.16976 18.4121 3.02712 18.3201 2.90283C18.2281 2.77855 18.1105 2.67553 17.9751 2.60078C17.8397 2.52604 17.6899 2.48132 17.5357 2.46966C17.3815 2.45801 17.2266 2.4797 17.0815 2.53325C16.9365 2.5868 16.8046 2.67095 16.695 2.78Z" fill="#E400F8"/>
</svg>
